<svg width="80" height="21" viewBox="0 0 80 21" fill="none" xmlns="http://www.w3.org/2000/svg">
<path d="M5.68398 16.4139H12.035V20.7639H-2.33874e-05V0.318915H5.68398V16.4139ZM24.0471 20.9669C22.1331 20.9669 20.3738 20.5222 18.7691 19.6329C17.1644 18.7242 15.8884 17.4772 14.9411 15.8919C14.0131 14.2872 13.5491 12.4796 13.5491 10.4689C13.5491 8.45825 14.0131 6.66025 14.9411 5.07492C15.8884 3.47025 17.1644 2.22325 18.7691 1.33392C20.3738 0.444582 22.1331 -8.4579e-05 24.0471 -8.4579e-05C25.9804 -8.4579e-05 27.7398 0.444582 29.3251 1.33392C30.9298 2.22325 32.1961 3.47025 33.1241 5.07492C34.0521 6.66025 34.5161 8.45825 34.5161 10.4689C34.5161 12.4796 34.0521 14.2872 33.1241 15.8919C32.1961 17.4772 30.9298 18.7242 29.3251 19.6329C27.7204 20.5222 25.9611 20.9669 24.0471 20.9669ZM24.0471 15.6889C25.4971 15.6889 26.6378 15.2152 27.4691 14.2679C28.3198 13.3206 28.7451 12.0542 28.7451 10.4689C28.7451 8.84492 28.3198 7.56892 27.4691 6.64092C26.6378 5.69358 25.4971 5.21992 24.0471 5.21992C22.5778 5.21992 21.4274 5.69358 20.5961 6.64092C19.7648 7.56892 19.3491 8.84492 19.3491 10.4689C19.3491 12.0736 19.7648 13.3496 20.5961 14.2969C21.4274 15.2249 22.5778 15.6889 24.0471 15.6889ZM50.1213 7.04692C49.7926 6.50558 49.3383 6.08991 48.7583 5.79992C48.1976 5.50992 47.5306 5.36492 46.7573 5.36492C45.3266 5.36492 44.1956 5.82892 43.3643 6.75692C42.5523 7.68492 42.1463 8.93192 42.1463 10.4979C42.1463 12.2572 42.5813 13.6009 43.4513 14.5289C44.3406 15.4376 45.6263 15.8919 47.3083 15.8919C49.2996 15.8919 50.7206 14.9929 51.5713 13.1949H45.8583V9.10592H56.4723V14.6159C56.0276 15.6986 55.3703 16.7136 54.5003 17.6609C53.6496 18.6082 52.5669 19.3912 51.2523 20.0099C49.9376 20.6092 48.4393 20.9089 46.7573 20.9089C44.7079 20.9089 42.8906 20.4739 41.3053 19.6039C39.7393 18.7146 38.5213 17.4869 37.6513 15.9209C36.8006 14.3356 36.3753 12.5279 36.3753 10.4979C36.3753 8.48725 36.8006 6.69892 37.6513 5.13292C38.5213 3.54758 39.7393 2.31991 41.3053 1.44992C42.8713 0.560582 44.6789 0.115916 46.7283 0.115916C49.2996 0.115916 51.4263 0.734582 53.1083 1.97192C54.7903 3.20925 55.8343 4.90091 56.2403 7.04692H50.1213ZM68.8215 20.9669C66.9075 20.9669 65.1482 20.5222 63.5435 19.6329C61.9388 18.7242 60.6628 17.4772 59.7155 15.8919C58.7875 14.2872 58.3235 12.4796 58.3235 10.4689C58.3235 8.45825 58.7875 6.66025 59.7155 5.07492C60.6628 3.47025 61.9388 2.22325 63.5435 1.33392C65.1482 0.444582 66.9075 -8.4579e-05 68.8215 -8.4579e-05C70.7548 -8.4579e-05 72.5142 0.444582 74.0995 1.33392C75.7042 2.22325 76.9705 3.47025 77.8985 5.07492C78.8265 6.66025 79.2905 8.45825 79.2905 10.4689C79.2905 12.4796 78.8265 14.2872 77.8985 15.8919C76.9705 17.4772 75.7042 18.7242 74.0995 19.6329C72.4948 20.5222 70.7355 20.9669 68.8215 20.9669ZM68.8215 15.6889C70.2715 15.6889 71.4122 15.2152 72.2435 14.2679C73.0942 13.3206 73.5195 12.0542 73.5195 10.4689C73.5195 8.84492 73.0942 7.56892 72.2435 6.64092C71.4122 5.69358 70.2715 5.21992 68.8215 5.21992C67.3522 5.21992 66.2018 5.69358 65.3705 6.64092C64.5392 7.56892 64.1235 8.84492 64.1235 10.4689C64.1235 12.0736 64.5392 13.3496 65.3705 14.2969C66.2018 15.2249 67.3522 15.6889 68.8215 15.6889Z" fill="white"/>
</svg>
